<svg id="Layer_1" data-name="Layer 1" xmlns="http://www.w3.org/2000/svg" viewBox="0 0 32 32"><defs><style>.cls-1{fill:#eb4498;}</style></defs><title>arrow-pink</title><g id="Icons-_-Line-_-Arrows-_-Navigational-_-Link-Arrow---Right" data-name="Icons-/-Line-/-Arrows-&amp;-Navigational-/-Link-Arrow---Right"><g id="Icons-_-Tint-_-Blue" data-name="Icons-/-Tint-/-Blue"><g id="Path"><path id="path-1" class="cls-1" d="M19,9.91,25,14.86H3.24a1.52,1.52,0,1,0,0,3H25.09l-6.11,5A1.51,1.51,0,0,0,19,25a1.56,1.56,0,0,0,2.18,0l9.15-7.48a1.51,1.51,0,0,0,.44-1.15,1.48,1.48,0,0,0-.44-1.15L21.16,7.76a1.56,1.56,0,0,0-2.18,0,1.51,1.51,0,0,0,0,2.15Z"/></g></g></g></svg>