<?xml version="1.0" encoding="UTF-8"?>
<svg width="32px" height="32px" viewBox="0 0 32 32" version="1.1" xmlns="http://www.w3.org/2000/svg" xmlns:xlink="http://www.w3.org/1999/xlink">
    <!-- Generator: Sketch 50.2 (55047) - http://www.bohemiancoding.com/sketch -->
    <title>Icons / Line / General / Clock</title>
    <desc>Created with Sketch.</desc>
    <defs>
        <path d="M26,17 L28,17 L28,15 L26,15 L26,17 Z M16,30 C8.268,30 2,23.732 2,16 C2,8.269 8.268,2 16,2 C23.732,2 30,8.269 30,16 C30,23.732 23.732,30 16,30 L16,30 Z M16,0 C7.163,0 0,7.164 0,16 C0,24.837 7.163,32 16,32 C24.837,32 32,24.837 32,16 C32,7.164 24.837,0 16,0 L16,0 Z M22.076,8.273 L23.46,9.66 L24.844,8.273 L23.46,6.887 L22.076,8.273 L22.076,8.273 Z M21.783,22.778 L23.197,24.192 L24.611,22.778 L23.197,21.364 L21.783,22.778 L21.783,22.778 Z M16,4 C15.448,4 15,4.447 15,5 L15,15.023 L7,15.023 C6.447,15.023 6,15.472 6,16.024 C6,16.576 6.447,17.023 7,17.023 L16,17.023 C16.553,17.023 17,16.576 17,16.024 L17,5 C17,4.447 16.553,4 16,4 L16,4 Z M9.692,8.323 L8.278,6.909 L6.864,8.323 L8.278,9.737 L9.692,8.323 L9.692,8.323 Z M6.733,22.832 L8.117,24.219 L9.501,22.832 L8.117,21.445 L6.733,22.832 L6.733,22.832 Z M15,28 L17,28 L17,26 L15,26 L15,28 Z" id="path-1"></path>
    </defs>
    <g id="Icons-/-Line-/-General-/-Clock" stroke="none" stroke-width="1" fill="none" fill-rule="evenodd">
        <g id="Icons-/-Tint-/-Blue">
            <mask id="mask-2" fill="white">
                <use xlink:href="#path-1"></use>
            </mask>
            <use id="Mask" fill="#FFFFFF" xlink:href="#path-1"></use>
            <g id="Colours-/-Greyscale-Palette-/-Black-80" mask="url(#mask-2)" fill="#FFFFFF">
                <rect id="Rectangle-4-Copy-3" x="0" y="0" width="32" height="32"></rect>
            </g>
        </g>
    </g>
</svg>