<?xml version="1.0" encoding="UTF-8"?>
<svg width="32px" height="32px" viewBox="0 0 32 32" version="1.1" xmlns="http://www.w3.org/2000/svg" xmlns:xlink="http://www.w3.org/1999/xlink">
    <!-- Generator: Sketch 50.2 (55047) - http://www.bohemiancoding.com/sketch -->
    <title>Icons / Line / Arrows &amp; Navigational / Download</title>
    <desc>Created with Sketch.</desc>
    <defs>
        <path d="M1.06666667,26.7677391 L30.9333333,26.7677391 C31.5221333,26.7677391 32,26.2853444 32,25.6909652 L32,17.0767739 C32,16.4813179 31.5221333,16 30.9333333,16 C30.3445333,16 29.8666667,16.4813179 29.8666667,17.0767739 L29.8666667,24.6141913 L2.13333333,24.6141913 L2.13333333,17.0767739 C2.13333333,16.4813179 1.65546667,16 1.06666667,16 C0.477866667,16 0,16.4813179 0,17.0767739 L0,25.6909652 C0,26.2864212 0.477866667,26.7677391 1.06666667,26.7677391 L1.06666667,26.7677391 Z M20.5514667,12.7049626 L17.0666667,16.9689873 L17.0666667,1.61634486 C17.0666667,1.02088889 16.5888,0.537417398 16,0.537417398 C15.4112,0.537417398 14.9333333,1.02088889 14.9333333,1.61634486 L14.9333333,17.0099047 L11.4154667,12.7049626 C10.9973333,12.2796369 10.3189333,12.2796369 9.9008,12.7049626 C9.48266667,13.1281348 9.48266667,13.8161933 9.9008,14.2404422 L15.1722667,20.6913947 C15.3952,20.9175173 15.6906667,21.0144269 15.9829333,20.9982753 C16.2752,21.0144269 16.5717333,20.9175173 16.7946667,20.6913947 L22.0661333,14.2404422 C22.4842667,13.8161933 22.4842667,13.1281348 22.0661333,12.7049626 C21.648,12.2796369 20.9696,12.2796369 20.5514667,12.7049626 L20.5514667,12.7049626 Z" id="path-1"></path>
    </defs>
    <g id="Icons-/-Line-/-Arrows-&amp;-Navigational-/-Download" stroke="none" stroke-width="1" fill="none" fill-rule="evenodd">
        <g id="Icons-/-Tint-/-Blue" transform="translate(0.000000, 3.000000)">
            <mask id="mask-2" fill="white">
                <use xlink:href="#path-1"></use>
            </mask>
            <use id="Mask" fill="#FFFFFF" xlink:href="#path-1"></use>
            <g id="Colours-/-Greyscale-Palette-/-Black-80" mask="url(#mask-2)" fill="#FFFFFF">
                <g transform="translate(0.000000, -3.000000)" id="Rectangle-4-Copy-3">
                    <rect x="0" y="0" width="32" height="32"></rect>
                </g>
            </g>
        </g>
    </g>
</svg>