<svg id="Layer_1" data-name="Layer 1" xmlns="http://www.w3.org/2000/svg" viewBox="0 0 448.25 448.15" width="448" height="448"><title>instagram</title><path d="M224.1,115A114.9,114.9,0,1,0,339,229.9,114.72,114.72,0,0,0,224.1,115Zm0,189.6a74.7,74.7,0,1,1,74.7-74.7,74.84,74.84,0,0,1-74.7,74.7ZM370.5,110.3a26.8,26.8,0,1,1-26.8-26.8A26.74,26.74,0,0,1,370.5,110.3Zm76.1,27.2c-1.7-35.9-9.9-67.7-36.2-93.9s-58-34.4-93.9-36.2c-37-2.1-147.9-2.1-184.9,0C95.8,9.1,64,17.3,37.7,43.5s-34.4,58-36.2,93.9c-2.1,37-2.1,147.9,0,184.9,1.7,35.9,9.9,67.7,36.2,93.9s58,34.4,93.9,36.2c37,2.1,147.9,2.1,184.9,0,35.9-1.7,67.7-9.9,93.9-36.2s34.4-58,36.2-93.9c2.1-37,2.1-147.8,0-184.8ZM398.8,362a75.63,75.63,0,0,1-42.6,42.6c-29.5,11.7-99.5,9-132.1,9s-102.7,2.6-132.1-9A75.63,75.63,0,0,1,49.4,362c-11.7-29.5-9-99.5-9-132.1s-2.6-102.7,9-132.1A75.63,75.63,0,0,1,92,55.2c29.5-11.7,99.5-9,132.1-9s102.7-2.6,132.1,9a75.63,75.63,0,0,1,42.6,42.6c11.7,29.5,9,99.5,9,132.1S410.5,332.6,398.8,362Z" transform="translate(0.07 -5.82)" style="fill:#fff"/></svg>