<?xml version="1.0" encoding="UTF-8" standalone="no"?>
<svg width="1920px" height="1536px" viewBox="0 0 1920 1536" version="1.1" xmlns="http://www.w3.org/2000/svg" xmlns:xlink="http://www.w3.org/1999/xlink">
    <!-- Generator: Sketch 39.1 (31720) - http://www.bohemiancoding.com/sketch -->
    <title>Group</title>
    <desc>Created with Sketch.</desc>
    <defs></defs>
    <g id="Page-1" stroke="none" stroke-width="1" fill="none" fill-rule="evenodd">
        <g id="Group" fill="#000000">
            <path d="M640,448 C640,501.333333 621.333333,546.666667 584,584 C546.666667,621.333333 501.333333,640 448,640 C394.666667,640 349.333333,621.333333 312,584 C274.666667,546.666667 256,501.333333 256,448 C256,394.666667 274.666667,349.333333 312,312 C349.333333,274.666667 394.666667,256 448,256 C501.333333,256 546.666667,274.666667 584,312 C621.333333,349.333333 640,394.666667 640,448 L640,448 Z M1664,832 L1664,1280 L256,1280 L256,1088 L576,768 L736,928 L1248,416 L1664,832 Z M1760,128 L160,128 C151.333333,128 143.833333,131.166667 137.5,137.5 C131.166667,143.833333 128,151.333333 128,160 L128,1376 C128,1384.66667 131.166667,1392.16667 137.5,1398.5 C143.833333,1404.83333 151.333333,1408 160,1408 L1760,1408 C1768.66667,1408 1776.16667,1404.83333 1782.5,1398.5 C1788.83333,1392.16667 1792,1384.66667 1792,1376 L1792,160 C1792,151.333333 1788.83333,143.833333 1782.5,137.5 C1776.16667,131.166667 1768.66667,128 1760,128 L1760,128 Z M1920,160 L1920,1376 C1920,1420 1904.33333,1457.66667 1873,1489 C1841.66667,1520.33333 1804,1536 1760,1536 L160,1536 C116,1536 78.3333333,1520.33333 47,1489 C15.6666667,1457.66667 0,1420 0,1376 L0,160 C0,116 15.6666667,78.3333333 47,47 C78.3333333,15.6666667 116,0 160,0 L1760,0 C1804,0 1841.66667,15.6666667 1873,47 C1904.33333,78.3333333 1920,116 1920,160 L1920,160 Z" id="Shape"></path>
        </g>
    </g>
</svg>