<svg width="22" height="22" viewBox="0 0 22 22" xmlns="http://www.w3.org/2000/svg"><title>icon-people</title><g transform="translate(1 1)" stroke="#140B01" fill="none" fill-rule="evenodd"><g fill="#FFF"><path d="M14.33 14.889H6.064c-.317-2.071.556-3.855 2.262-4.174 1.187-.222 2.464-.2 3.661-.011 1.385.218 2.306 1.598 2.342 3.074.009.356.001.712.001 1.11M10.15 5c1.2-.01 2.208.998 2.2 2.196a2.205 2.205 0 0 1-2.167 2.169c-1.198.011-2.208-.998-2.199-2.196A2.206 2.206 0 0 1 10.15 5"/></g><circle cx="10" cy="10" r="10"/></g></svg>