<svg width="33" height="25" viewBox="0 0 33 25" xmlns="http://www.w3.org/2000/svg" xmlns:xlink="http://www.w3.org/1999/xlink"><title>icon-download</title><defs><path id="a" d="M32.855 22.32V.082H0v22.236h32.855z"/></defs><g fill="none" fill-rule="evenodd"><mask id="b" fill="#fff"><use xlink:href="#a"/></mask><path d="M25.718 7.852a7.4 7.4 0 0 0-.333.008c-.227-2.624-2.41-4.69-5.063-4.69-.495 0-.98.07-1.449.212a8.659 8.659 0 0 0-6.779-3.3c-4.786 0-8.68 3.94-8.68 8.784 0 .686.078 1.365.234 2.03C1.468 11.783 0 13.942 0 16.365c0 1.42.506 2.79 1.424 3.862a5.798 5.798 0 0 0 3.477 1.96c.298.087.604.131.911.131h2.07v-1.396h-2.07c-.188 0-.376-.028-.559-.085a.785.785 0 0 0-.097-.023c-2.153-.328-3.777-2.243-3.777-4.45 0-2.03 1.352-3.819 3.288-4.347a.691.691 0 0 0 .426-.34.704.704 0 0 0 .05-.547 7.483 7.483 0 0 1-.35-2.265c0-4.074 3.275-7.39 7.301-7.39a7.29 7.29 0 0 1 5.968 3.136.684.684 0 0 0 .83.241 3.665 3.665 0 0 1 1.43-.289c2.04 0 3.702 1.681 3.702 3.746 0 .08-.004.166-.01.27a.7.7 0 0 0 .222.564.681.681 0 0 0 .573.175c.301-.048.606-.073.907-.073 3.176 0 5.76 2.614 5.76 5.828 0 3.213-2.583 5.829-5.76 5.829l-.064-.002-.06-.002a.79.79 0 0 0-.104.006 1.811 1.811 0 0 1-.25.017h-.584v1.397h.584c.121 0 .245-.008.371-.023l.107.002c3.937 0 7.139-3.24 7.139-7.223 0-3.983-3.201-7.223-7.137-7.223" fill="#D31245" mask="url(#b)"/><path d="M18.051 19.894s.004-6.033.004-9.187c0-.826-.71-1.496-1.583-1.496-.874 0-1.583.67-1.583 1.496l-.003 9.179s-.535-.5-2.975-2.807a1.65 1.65 0 0 0-2.238 0 1.44 1.44 0 0 0 0 2.115l5.678 5.368a1.65 1.65 0 0 0 2.238 0l5.632-5.324a1.439 1.439 0 0 0 0-2.116 1.648 1.648 0 0 0-2.237 0l-2.933 2.772" fill="#D31245"/></g></svg>