<svg xmlns="http://www.w3.org/2000/svg" xmlns:xlink="http://www.w3.org/1999/xlink" width="32" height="32" viewBox="0 0 32 32">
  <defs>
    <path id="minus-a" d="M8.74997914,17.1250259 C8.54164662,17.1250259 8.36456307,17.0521091 8.2187304,16.9062764 C8.07289774,16.7604438 7.99998093,16.5833602 7.99998093,16.3750277 L7.99998093,15.6250295 C7.99998093,15.416697 8.07289774,15.2396134 8.2187304,15.0937808 C8.36456307,14.9479481 8.54164662,14.8750313 8.74997914,14.8750313 L23.2499446,14.8750313 C23.4582771,14.8750313 23.6353606,14.9479481 23.7811933,15.0937808 C23.927026,15.2396134 23.9999428,15.416697 23.9999428,15.6250295 L23.9999428,16.3750277 C23.9999428,16.5833602 23.927026,16.7604438 23.7811933,16.9062764 C23.6353606,17.0521091 23.4582771,17.1250259 23.2499446,17.1250259 L8.74997914,17.1250259 Z M31.4999249,16.0000286 C31.4999249,18.7916889 30.8020096,21.3750158 29.4061799,23.7500101 C28.0103502,26.1250045 26.1249377,28.010417 23.7499434,29.4062466 C21.374949,30.8020763 18.7916222,31.4999917 15.9999619,31.4999917 C13.2083015,31.4999917 10.6249747,30.8020763 8.24998033,29.4062466 C5.87498599,28.010417 3.9895735,26.1250045 2.59374382,23.7500101 C1.19791413,21.3750158 0.499998808,18.7916889 0.499998808,16.0000286 C0.499998808,13.2083683 1.19791413,10.6250414 2.59374382,8.25004709 C3.9895735,5.87505275 5.87498599,3.98964026 8.24998033,2.59381057 C10.6249747,1.19798089 13.2083015,0.500065565 15.9999619,0.500065565 C18.7916222,0.500065565 21.374949,1.19798089 23.7499434,2.59381057 C26.1249377,3.98964026 28.0103502,5.87505275 29.4061799,8.25004709 C30.8020096,10.6250414 31.4999249,13.2083683 31.4999249,16.0000286 Z M29.4999297,16.0000286 C29.4999297,13.5417015 28.8957641,11.2812899 27.687434,9.21879478 C26.4791039,7.1562997 24.8332738,5.52088661 22.7499458,4.31255648 C20.6666177,3.10422634 18.4062061,2.5000608 15.9687119,2.5000608 C13.5312177,2.5000608 11.2812231,3.10422634 9.21872802,4.31255648 C7.15623294,5.52088661 5.52081985,7.16671666 4.31248972,9.2500447 C3.10415958,11.3333728 2.49999404,13.5937843 2.49999404,16.0312785 C2.49999404,18.4687727 3.10415958,20.7187674 4.31248972,22.7812624 C5.52081985,24.8437575 7.1666499,26.4791706 9.24997795,27.6875007 C11.333306,28.8958309 13.5937176,29.4999964 16.0312118,29.4999964 C18.468706,29.4999964 20.7187006,28.8958309 22.7811957,27.6875007 C24.8436908,26.4791706 26.4791039,24.8333406 27.687434,22.7500125 C28.8957641,20.6666845 29.4999297,18.4166898 29.4999297,16.0000286 Z"/>
  </defs>
  <g fill="none" fill-rule="evenodd">
    <mask id="minus-b" fill="#fff">
      <use xlink:href="#minus-a"/>
    </mask>
    <use fill="#979797" xlink:href="#minus-a"/>
    <g fill="#791d7e" mask="url(#minus-b)">
      <rect width="32" height="32"/>
    </g>
  </g>
</svg>
