<svg xmlns="http://www.w3.org/2000/svg" xmlns:xlink="http://www.w3.org/1999/xlink" width="32" height="32" viewBox="0 0 32 32">
  <defs>
    <path id="up-a" d="M0.215246637,16.573991 C0.0717488789,16.4304933 0,16.2391626 0,16 C0,15.7608374 0.0717488789,15.5695067 0.215246637,15.426009 L15.426009,0.215246637 C15.5695067,0.0717488789 15.7608374,0 16,0 C16.2391626,0 16.4304933,0.0717488789 16.573991,0.215246637 L31.7847534,15.426009 C31.9282511,15.5695067 32,15.7608374 32,16 C32,16.2391626 31.9282511,16.4304933 31.7847534,16.573991 L31.2107623,17.1479821 C31.0672646,17.2914798 30.8759339,17.3632287 30.6367713,17.3632287 C30.3976087,17.3632287 30.1823621,17.2914798 29.9910314,17.1479821 L16,3.08520179 L2.00896861,17.1479821 C1.8176379,17.2914798 1.60239126,17.3632287 1.3632287,17.3632287 C1.12406613,17.3632287 0.932735426,17.2914798 0.789237668,17.1479821 L0.215246637,16.573991 Z"/>
  </defs>
  <g fill="none" fill-rule="evenodd" transform="translate(0 7)">
    <mask id="up-b" fill="#fff">
      <use xlink:href="#up-a"/>
    </mask>
    <use fill="#791d7e" xlink:href="#up-a"/>
    <g fill="#791d7e" mask="url(#up-b)">
      <rect width="32" height="32" transform="translate(0 -7)"/>
    </g>
  </g>
</svg>
