<?xml version="1.0" encoding="UTF-8" standalone="no"?>
<svg width="28px" height="20px" viewBox="0 0 28 20" version="1.1" xmlns="http://www.w3.org/2000/svg" xmlns:xlink="http://www.w3.org/1999/xlink">
    <!-- Generator: Sketch 39.1 (31720) - http://www.bohemiancoding.com/sketch -->
    <title>Group 7</title>
    <desc>Created with Sketch.</desc>
    <defs></defs>
    <g id="Templates" stroke="none" stroke-width="1" fill="none" fill-rule="evenodd">
        <g id="T4c:-Projects-detail-Copy-3" transform="translate(-1219.000000, -829.000000)" fill="#EC4498">
            <g id="Group-6" transform="translate(1199.000000, 810.000000)">
                <g id="Group-7" transform="translate(20.000000, 19.000000)">
                    <path d="M2.34746415,3.84549845 C3.34824928,3.85252835 4.09135879,3.17567181 4.10921272,2.24069591 C4.12787088,1.26751405 3.3837963,0.5552024 2.35309376,0.559787113 C1.37321864,0.564066179 0.609520816,1.28142102 0.613702818,2.19393183 C0.617723973,3.11286124 1.37965248,3.83862138 2.34746415,3.84549845 M2.355989,16.2178851 C1.35021763,16.2238453 0.589897578,16.9656519 0.618367358,17.9128537 C0.645550368,18.8129858 1.42742381,19.5211712 2.38735401,19.5153639 C3.38974761,19.5094038 4.13301796,18.7726403 4.10937356,17.8086279 C4.08669425,16.8889344 3.34052867,16.211925 2.355989,16.2178851 M4.1098561,9.88043567 C4.11500318,8.92543985 3.33875936,8.18348038 2.3514853,8.19937405 C1.4065138,8.21480925 0.620780051,8.96181191 0.614507049,9.85048221 C0.6080732,10.7937106 1.38817733,11.52268 2.39475293,11.5136634 C3.36980268,11.5051053 4.10486987,10.8050196 4.1098561,9.88043567 M17.0393181,0.516690806 C14.3335631,0.516690806 11.6278081,0.512870212 8.92221395,0.518371868 C7.66809603,0.520817048 6.96246369,1.11193944 6.95426053,2.14243021 C6.94621822,3.1524426 7.68675419,3.79919285 8.90452087,3.80056826 C14.3160309,3.80698686 19.7275408,3.80652839 25.1390508,3.80117956 C26.4118269,3.79995697 27.1726295,3.15076153 27.153328,2.11965947 C27.1343481,1.1136205 26.4007285,0.51928881 25.1565831,0.517760573 C22.4508281,0.514245626 19.7450731,0.516690806 17.0393181,0.516690806 M17.0391572,16.174636 C14.3065409,16.174636 11.5739246,16.1815131 8.84146915,16.1697456 C8.17990868,16.166842 7.51979582,16.2976591 7.27337942,16.8785423 C7.06363596,17.3729273 6.99254193,18.0276244 7.15001037,18.5293449 C7.36474007,19.2133841 8.04833647,19.4664603 8.82152422,19.4652377 C14.2598955,19.4569852 19.6982668,19.4634038 25.136799,19.459736 C26.4176174,19.4588191 27.1726295,18.8215439 27.1526846,17.7847874 C27.133383,16.7769145 26.4013719,16.1786094 25.1565831,16.1761642 C22.4508281,16.1708154 19.7450731,16.1744832 17.0391572,16.174636 M17.0139044,11.4962415 C18.7820868,11.4962415 20.5502692,11.4976169 22.3184516,11.4957831 C23.3631478,11.4947133 24.4099349,11.5260422 25.4520576,11.4743877 C26.4777739,11.4236502 27.1623353,10.7017107 27.1528454,9.79103375 C27.1435163,8.88295483 26.4341845,8.21007172 25.4068598,8.1425236 C25.1934169,8.12861664 24.9783655,8.13595218 24.7641183,8.13595218 C19.6202564,8.13564653 14.4765554,8.13457677 9.33269348,8.13839736 C8.98639159,8.13870301 8.62850876,8.1302977 8.29603964,8.20594547 C7.14470245,8.46773261 6.58753117,9.64860199 7.15097545,10.6017639 C7.56772799,11.3071985 8.25695401,11.5006734 9.05700308,11.4986867 C11.7093571,11.4918096 14.3615503,11.4960887 17.0139044,11.4962415" id="Fill-1"></path>
                </g>
            </g>
        </g>
    </g>
</svg>