<svg width="1409" height="1408" viewBox="0 0 1409 1408" xmlns="http://www.w3.org/2000/svg"><title>Shape</title><path d="M384 1216c0 53.333-18.667 98.667-56 136s-82.667 56-136 56-98.667-18.667-136-56-56-82.667-56-136 18.667-98.667 56-136 82.667-56 136-56 98.667 18.667 136 56 56 82.667 56 136zm512 123c1.333 18.667-4.333 34.667-17 48-12 14-27.667 21-47 21H697c-16.667 0-31-5.5-43-16.5s-18.667-24.833-20-41.5c-14.667-152.667-76.167-283.167-184.5-391.5C341.167 850.167 210.667 788.667 58 774c-16.667-1.333-30.5-8-41.5-20S0 727.667 0 711V576c0-19.333 7-35 21-47 11.333-11.333 25.667-17 43-17h5c106.667 8.667 208.667 35.5 306 80.5S558.667 698 634 774c76 75.333 136.5 161.667 181.5 259s71.833 199.333 80.5 306zm512 2c1.333 18-4.667 33.667-18 47-12 13.333-27.333 20-46 20h-143c-17.333 0-32.167-5.833-44.5-17.5-12.333-11.667-18.833-25.833-19.5-42.5-8-143.333-41.667-279.5-101-408.5s-136.5-241-231.5-336-207-172.167-336-231.5S203.333 278.667 60 270c-16.667-.667-30.833-7.167-42.5-19.5C5.833 238.167 0 223.667 0 207V64c0-18.667 6.667-34 20-46C32 6 46.667 0 64 0h3c174.667 8.667 341.833 48.667 501.5 120C728.167 191.333 870 289.333 994 414c124.667 124 222.667 265.833 294 425.5 71.333 159.667 111.333 326.833 120 501.5z" fill="#00929F" fill-rule="evenodd"/></svg>