<svg width="166" height="22" viewBox="0 0 166 22" xmlns="http://www.w3.org/2000/svg"><title>sprite-header-icons</title><g fill="none" fill-rule="evenodd"><path d="M137.75 2.5h-22.5c-.75 0-1.25-.5-1.25-1.25S114.5 0 115.25 0h22.5c.75 0 1.25.5 1.25 1.25s-.5 1.25-1.25 1.25zm0 7.5h-22.5c-.75 0-1.25-.5-1.25-1.25s.5-1.25 1.25-1.25h22.5c.75 0 1.25.5 1.25 1.25s-.5 1.25-1.25 1.25zm0 7.5h-22.5c-.75 0-1.25-.5-1.25-1.25s.5-1.25 1.25-1.25h22.5c.75 0 1.25.5 1.25 1.25s-.5 1.25-1.25 1.25zM33.859 11.354a5.671 5.671 0 0 0 5.676-5.673 5.678 5.678 0 1 0-9.693 4.014 5.672 5.672 0 0 0 4.016 1.659h.001z" fill="#000"/><path fill="#FFF" d="M33.848 21.181h8.849v-8.51H25v8.51z"/><path d="M33.852 12.671c-9.702 0-8.832 8.51-8.832 8.51h17.673s.46-8.51-8.841-8.51" fill="#140B01"/><path d="M20 10.5a9.5 9.5 0 1 1-19 0 9.5 9.5 0 0 1 19 0z" stroke="#140B01" stroke-width="2"/><path d="M17.522 4.102s-.413 2.267-2.065 3.094c-1.652-.413-3.305.826-2.892.826.413 0 .826 1.652.826 1.652.414.413 1.24 0 1.24 0 1.032 1.033-1.653 2.891-1.653 3.304 0 .414 1.033.62.413 1.24-.619.619-1.239.826-1.239.826 0 2.064-2.065 2.064-2.478 2.064-.413 0-1.24-1.651-1.24-2.064 0-.414.414-.827.414-1.24 0-.412-.826-1.239-.826-1.239 0-1.652-1.24-1.239-2.479-1.239-1.238 0-1.238-1.652-1.238-1.652s0-2.891 2.064-3.305c2.066-.412 2.066.414 2.066.414.826.825 2.478 0 3.304 0 0 0 .413-2.891-.413-2.479-.826.413-1.566.094-1.652-.826-.12-1.29 3.604-2.065 3.604-2.065" fill="#140B01"/><g transform="translate(48 1)"><path d="M17.093 19.314L1.743 3.964c-.513-.512-.513-1.194 0-1.706.51-.512 1.193-.512 1.705 0l15.35 15.35c.512.512.512 1.195 0 1.706-.51.512-1.193.512-1.705 0z" fill="#140B01"/><circle stroke="#140B01" stroke-width="2" fill="#FFF" cx="7" cy="7" r="7"/></g><g transform="translate(70 1)"><path d="M17.093 19.314L1.743 3.964c-.513-.512-.513-1.194 0-1.706.51-.512 1.193-.512 1.705 0l15.35 15.35c.512.512.512 1.195 0 1.706-.51.512-1.193.512-1.705 0z" fill="#979797"/><circle stroke="#979797" stroke-width="2" fill="#FFF" cx="7" cy="7" r="7"/></g><g transform="translate(92 1)"><path d="M17.093 19.314L1.743 3.964c-.513-.512-.513-1.194 0-1.706.51-.512 1.193-.512 1.705 0l15.35 15.35c.512.512.512 1.195 0 1.706-.51.512-1.193.512-1.705 0z" fill="#EB4498"/><circle stroke="#EB4498" stroke-width="2" fill="#FFF" cx="7" cy="7" r="7"/></g><path d="M165 14.778c0 1.236-.944 2.222-2.13 2.222h-18.814c-1.204 0-2.056-.986-2.056-2.222V3.222C142 1.89 142.852 1 144.13 1h18.74c1.278 0 2.13.889 2.13 2.222v11.556z" stroke="#231F20" stroke-width="2"/><path stroke="#231F20" d="M164.446 16.657l-10.52-8.687-11.372 8.687"/><path stroke="#000" fill="#FEFEFE" d="M164.21 2.411l-10.293 8.942L142.79 2.41"/></g></svg>